<?xml version="1.0" standalone="no"?>
<!DOCTYPE svg PUBLIC "-//W3C//DTD SVG 20010904//EN"
 "http://www.w3.org/TR/2001/REC-SVG-20010904/DTD/svg10.dtd">
<svg version="1.0" xmlns="http://www.w3.org/2000/svg"
 width="1024.000000pt" height="1024.000000pt" viewBox="0 0 1024.000000 1024.000000"
 preserveAspectRatio="xMidYMid meet">

<g transform="translate(0.000000,1024.000000) scale(0.100000,-0.100000)"
fill="#000000" stroke="none">
<path d="M4503 8233 c9 -2 25 -2 35 0 9 3 1 5 -18 5 -19 0 -27 -2 -17 -5z"/>
<path d="M4448 8223 c7 -3 16 -2 19 1 4 3 -2 6 -13 5 -11 0 -14 -3 -6 -6z"/>
<path d="M4278 8185 c-158 -40 -235 -71 -255 -101 -13 -21 -13 -31 6 -101 11
-43 28 -105 39 -138 l18 -60 60 2 c98 2 501 114 520 144 8 14 -8 11 -74 -16
-67 -27 -76 -29 -68 -16 3 4 -5 7 -19 6 -32 -4 -63 25 -71 64 -4 17 -10 31
-15 31 -4 0 -2 -20 5 -44 8 -25 11 -47 8 -50 -14 -15 -43 -3 -56 22 -21 41
-58 170 -52 180 3 5 -22 3 -57 -4 -80 -17 -117 -17 -141 1 -19 14 -19 15 0 21
10 3 36 12 56 20 20 7 83 25 140 39 97 25 129 36 97 34 -8 0 -71 -16 -141 -34z"/>
<path d="M4566 8207 c3 -10 9 -15 12 -12 3 3 0 11 -7 18 -10 9 -11 8 -5 -6z"/>
<path d="M4378 8133 c-15 -4 -15 -8 -4 -41 16 -44 40 -58 30 -15 -5 15 -8 36
-8 46 0 9 0 16 -1 16 0 -1 -8 -3 -17 -6z"/>
<path d="M4565 7814 c-85 -30 -339 -94 -374 -94 -49 0 -55 -11 -35 -72 l17
-56 -62 -145 c-109 -258 -161 -431 -161 -542 0 -71 24 -159 73 -269 20 -43 39
-101 42 -128 5 -34 13 -53 28 -63 12 -8 92 -25 177 -39 163 -27 715 -113 935
-146 72 -11 155 -24 185 -29 30 -5 57 -8 58 -6 2 2 -16 86 -41 187 -25 101
-50 216 -56 257 -7 40 -25 105 -42 144 -16 39 -34 102 -40 141 -5 39 -14 89
-20 111 -14 52 -82 182 -115 220 -20 23 -22 24 -10 5 43 -68 87 -150 101 -190
15 -42 32 -180 19 -152 -3 6 -10 12 -15 12 -6 0 -7 -5 -4 -11 4 -6 0 -9 -10
-7 -10 2 -20 -4 -22 -12 -4 -13 -3 -13 6 0 9 13 11 13 11 -2 0 -22 -18 -24
-26 -3 -4 9 -15 20 -26 26 -14 8 -18 8 -14 1 4 -7 -22 -19 -66 -32 -40 -12
-101 -30 -135 -40 -35 -10 -63 -14 -63 -9 0 5 9 9 19 9 21 0 39 32 22 38 -6 2
-9 7 -6 12 3 4 -3 6 -14 3 -11 -3 -21 2 -25 13 -5 14 -4 15 9 4 13 -11 15 -10
10 1 -3 10 22 24 87 49 116 45 148 74 148 138 0 26 -4 53 -9 60 -5 8 -6 -7 -3
-37 8 -88 -18 -109 -208 -174 -107 -36 -377 -116 -462 -136 -128 -30 -213 -2
-257 84 -24 45 -26 59 -25 165 2 141 33 272 98 406 l44 91 109 18 c66 10 144
16 195 14 48 -2 81 -1 75 3 -17 11 -182 10 -251 -2 -63 -10 -77 -7 -58 12 8 8
12 8 12 1 0 -8 13 -8 42 -1 52 11 66 23 18 14 -19 -3 6 7 55 24 94 31 121 36
95 20 -21 -14 5 -13 31 1 16 8 26 5 55 -20 19 -17 38 -31 42 -31 4 1 -5 11
-20 23 -20 16 -32 41 -44 95 -10 39 -20 72 -23 71 -3 0 -37 -12 -76 -25z m615
-924 c6 -22 24 -84 40 -136 17 -53 30 -102 30 -109 0 -32 -491 -157 -673 -172
-76 -6 -79 -5 -153 32 -81 41 -179 125 -172 147 3 7 52 25 109 41 128 34 691
203 739 221 58 23 68 20 80 -24z m114 -402 c4 -25 3 -44 -4 -48 -5 -3 -63 -19
-129 -35 l-118 -28 -84 16 c-46 10 -104 17 -129 18 -40 0 -35 3 40 18 99 21
362 90 369 97 2 2 14 4 26 4 19 0 24 -7 29 -42z"/>
<path d="M4750 7597 c0 -3 12 -12 26 -22 15 -9 23 -12 20 -6 -7 11 -46 35 -46
28z"/>
<path d="M6026 7528 c-18 -28 -56 -186 -56 -234 0 -33 4 -37 53 -59 130 -60
445 -130 553 -123 l49 3 28 124 c28 123 28 125 9 150 -26 36 -90 65 -217 100
-151 42 -254 61 -336 61 -60 0 -70 -3 -83 -22z m371 -114 c-3 -3 -12 -4 -19
-1 -8 3 -5 6 6 6 11 1 17 -2 13 -5z"/>
<path d="M4880 7506 c0 -2 8 -10 18 -17 15 -13 16 -12 3 4 -13 16 -21 21 -21
13z"/>
<path d="M4945 7490 c10 -11 20 -20 23 -20 3 0 -3 9 -13 20 -10 11 -20 20 -23
20 -3 0 3 -9 13 -20z"/>
<path d="M4940 7446 c0 -2 8 -10 18 -17 15 -13 16 -12 3 4 -13 16 -21 21 -21
13z"/>
<path d="M5050 7385 c13 -14 26 -25 28 -25 3 0 -5 11 -18 25 -13 14 -26 25
-28 25 -3 0 5 -11 18 -25z"/>
<path d="M5000 7376 c0 -2 8 -10 18 -17 15 -13 16 -12 3 4 -13 16 -21 21 -21
13z"/>
<path d="M5085 7250 c9 -16 18 -30 21 -30 2 0 -2 14 -11 30 -9 17 -18 30 -21
30 -2 0 2 -13 11 -30z"/>
<path d="M5992 7142 c-4 -59 -9 -65 -80 -99 -155 -74 -326 -212 -367 -298 -17
-34 -20 -65 -22 -195 -1 -85 3 -195 9 -243 10 -76 14 -90 32 -97 21 -8 305
-55 831 -140 138 -22 260 -41 273 -44 34 -5 48 16 61 90 7 37 28 112 47 167
40 116 42 155 13 240 -34 103 -105 217 -234 374 -26 31 -26 32 -12 86 l14 54
-71 7 c-133 12 -440 93 -481 127 -7 5 -12 -5 -13 -29z m243 -187 c77 -9 158
-18 179 -20 49 -5 90 -43 157 -147 60 -94 110 -215 112 -273 2 -51 -22 -89
-74 -120 -30 -18 -51 -20 -169 -19 -74 1 -180 9 -235 18 -97 16 -324 77 -422
114 -46 17 -48 19 -45 52 10 106 58 196 157 295 67 67 184 141 195 124 3 -4
68 -15 145 -24z m-341 -570 c143 -37 335 -77 579 -121 l159 -28 -6 -35 c-9
-55 -13 -56 -148 -43 -296 30 -601 127 -694 223 -21 21 -34 39 -30 39 5 0 67
-16 140 -35z"/>
<path d="M6288 6923 c12 -2 32 -2 45 0 12 2 2 4 -23 4 -25 0 -35 -2 -22 -4z"/>
<path d="M5210 6985 c0 -8 4 -15 10 -15 5 0 7 7 4 15 -4 8 -8 15 -10 15 -2 0
-4 -7 -4 -15z"/>
<path d="M2313 6880 c-153 -34 -214 -229 -114 -367 56 -78 72 -81 451 -90 375
-10 376 -10 429 -83 31 -43 58 -122 152 -445 179 -617 421 -1345 578 -1738
119 -297 168 -374 270 -421 43 -20 66 -21 357 -26 l311 -5 37 -30 c21 -16 47
-36 57 -44 17 -12 96 -11 542 4 519 17 522 17 592 43 68 26 77 26 344 30 l274
3 57 -25 c67 -30 120 -33 203 -9 102 28 157 110 143 212 -7 52 -26 84 -63 108
-31 20 -7 20 -528 4 -721 -23 -1159 -33 -1570 -34 l-430 -2 -67 33 c-80 39
-116 78 -168 182 -106 211 -358 1052 -620 2065 -109 424 -160 486 -454 555
-182 42 -708 96 -783 80z m562 -80 c263 -41 346 -65 419 -121 49 -38 81 -82
102 -141 8 -22 41 -158 74 -302 33 -143 72 -310 86 -369 14 -60 24 -110 22
-113 -3 -2 -32 85 -65 194 -187 602 -197 630 -268 687 -97 78 -165 95 -605
145 -102 12 -200 22 -218 22 -60 0 -23 12 56 18 90 6 296 -4 397 -20z m103 3
c-10 -2 -28 -2 -40 0 -13 2 -5 4 17 4 22 1 32 -1 23 -4z m155 -30 c-7 -2 -19
-2 -25 0 -7 3 -2 5 12 5 14 0 19 -2 13 -5z m52 -21 c-3 -3 -11 0 -18 7 -9 10
-8 11 6 5 10 -3 15 -9 12 -12z m40 -10 c-3 -3 -11 0 -18 7 -9 10 -8 11 6 5 10
-3 15 -9 12 -12z m374 -1052 c0 -9 -4 -8 -9 5 -5 11 -9 27 -9 35 0 9 4 8 9 -5
5 -11 9 -27 9 -35z m3196 -1750 c11 -17 -16 -51 -51 -66 -46 -19 -289 -27
-484 -16 l-155 9 105 3 c72 2 96 5 75 10 -16 4 -24 8 -17 9 7 0 20 8 28 16 14
13 0 15 -123 17 -154 2 -134 5 107 17 245 12 508 13 515 1z"/>
<path d="M3654 6353 c3 -10 33 -125 67 -255 l62 -238 34 0 c135 0 983 -117
1006 -139 22 -22 -539 -29 -821 -10 -90 6 -165 9 -168 7 -2 -3 41 -168 95
-358 8 -28 8 -28 246 -60 191 -25 302 -45 340 -60 l30 -12 -25 -11 c-15 -6
-131 -12 -282 -15 -186 -3 -258 -7 -258 -15 0 -29 94 -329 104 -332 6 -1 79
-13 161 -25 174 -25 285 -49 285 -60 0 -15 -97 -29 -251 -36 l-157 -6 34 -106
c58 -186 141 -402 171 -444 17 -26 44 -49 72 -61 43 -19 59 -19 695 -7 358 6
869 15 1136 19 455 8 489 10 542 29 71 26 131 66 185 125 104 113 128 174 278
727 20 74 39 144 42 155 3 11 3 17 -1 14 -3 -3 -24 -68 -46 -144 -23 -76 -48
-144 -57 -150 -11 -9 -14 -20 -9 -41 5 -24 4 -26 -5 -11 -6 11 -8 32 -5 48 5
25 3 27 -8 17 -8 -7 -12 -16 -9 -20 2 -4 -3 -5 -11 -2 -9 3 -13 10 -10 15 3 5
0 17 -5 26 -9 16 -10 15 -11 -7 -1 -23 -2 -24 -14 -7 -14 18 -15 17 -21 -3 -4
-12 -9 -20 -11 -18 -2 3 16 68 40 145 24 78 47 157 50 175 l5 33 -11 -35
c-105 -327 -146 -440 -160 -440 -5 0 -7 7 -4 16 10 25 58 294 54 305 -2 5 -16
-54 -32 -131 -26 -126 -31 -140 -47 -135 -11 4 -19 2 -19 -3 0 -6 -9 -8 -20
-5 -11 3 -20 1 -20 -4 0 -6 -23 -6 -62 0 -35 5 -73 10 -85 11 -13 0 -23 7 -23
14 0 6 -10 12 -22 12 -36 0 -96 19 -112 36 -9 8 -36 24 -61 35 -25 11 -45 24
-45 28 0 12 -52 33 -61 24 -4 -4 -9 -19 -12 -33 -2 -14 -4 30 -5 98 -2 219
-68 407 -200 574 -146 184 -350 288 -624 320 -253 29 -527 -56 -705 -218 -40
-36 -73 -62 -73 -58 0 4 -13 -13 -30 -39 -32 -51 -37 -55 -37 -32 0 8 3 12 7
10 4 -3 16 12 26 33 10 20 22 39 27 40 14 7 7 18 -13 19 -11 1 -19 -1 -19 -5
3 -19 -2 -25 -10 -13 -7 10 -26 14 -63 13 -39 -1 -48 1 -33 8 11 5 39 9 62 9
23 1 66 6 94 12 45 10 50 13 36 24 -9 6 -15 14 -13 16 2 2 -14 5 -36 6 -22 1
-42 4 -45 6 -9 9 17 47 32 47 8 0 15 5 15 10 0 6 -9 10 -21 10 -15 0 -19 5
-15 15 4 11 -1 15 -19 15 -14 0 -25 5 -25 10 0 6 6 10 13 10 6 0 1 6 -13 13
-13 7 -29 26 -35 42 -5 17 -20 38 -33 48 -12 10 -20 23 -17 28 4 5 -1 9 -9 9
-26 0 -28 20 -4 29 20 7 18 9 -15 9 -50 0 -57 8 -21 24 40 17 39 16 19 38 -18
19 -17 20 1 21 11 0 13 3 7 6 -7 2 -13 11 -13 18 0 7 6 16 13 19 6 3 -1 4 -17
1 -23 -5 -27 -3 -23 9 4 10 1 16 -9 16 -9 0 -12 -5 -8 -11 4 -7 1 -10 -7 -7
-8 3 -13 11 -11 18 2 8 -4 11 -19 7 -15 -4 -19 -3 -12 4 7 7 23 7 49 1 22 -6
64 -13 94 -16 87 -9 211 -26 260 -36 63 -13 235 -39 300 -45 30 -3 62 -8 70
-10 16 -5 177 -30 445 -71 94 -14 181 -27 195 -29 23 -5 237 -41 288 -49 12
-2 20 -1 17 2 -9 9 -211 43 -910 153 -71 11 -184 29 -250 40 -66 10 -237 37
-380 59 -467 71 -717 110 -866 135 -175 30 -172 30 -165 8z m789 -130 c-7 -2
-19 -2 -25 0 -7 3 -2 5 12 5 14 0 19 -2 13 -5z m217 -278 c0 -8 -4 -15 -10
-15 -5 0 -10 7 -10 15 0 8 5 15 10 15 6 0 10 -7 10 -15z m1085 -65 c378 -101
623 -410 642 -810 12 -250 -79 -478 -261 -647 -179 -167 -403 -242 -681 -229
-238 11 -411 83 -574 240 -121 117 -197 247 -243 417 -18 69 -22 109 -21 219
1 164 21 251 90 390 39 78 63 111 138 186 127 129 241 196 409 241 133 35 355
32 501 -7z m-1118 -96 c-3 -3 -12 -4 -19 -1 -8 3 -5 6 6 6 11 1 17 -2 13 -5z
m83 -6 c16 -1 30 -4 30 -8 0 -11 -83 0 -95 12 -7 7 -3 8 12 3 13 -3 36 -7 53
-7z m2467 -920 c-3 -8 -6 -5 -6 6 -1 11 2 17 5 13 3 -3 4 -12 1 -19z m-32
-105 c-9 -15 -13 -19 -10 -8 4 11 10 29 13 40 3 11 7 14 9 8 3 -7 -3 -24 -12
-40z m-35 -57 c0 -2 -8 -10 -17 -17 -16 -13 -17 -12 -4 4 13 16 21 21 21 13z
m-50 -60 c0 -2 -8 -10 -17 -17 -16 -13 -17 -12 -4 4 13 16 21 21 21 13z"/>
<path d="M5372 5719 c-59 -10 -102 -28 -69 -29 32 0 118 -92 189 -199 37 -58
68 -112 68 -120 0 -8 -19 -35 -42 -58 l-42 -43 171 0 172 0 19 28 c36 51 137
250 130 257 -3 3 -24 -3 -47 -14 -61 -32 -72 -28 -111 39 -39 69 -69 99 -125
129 -34 18 -56 21 -150 20 -60 -1 -134 -5 -163 -10z"/>
<path d="M5144 5613 c-46 -61 -154 -240 -154 -255 0 -3 19 -13 42 -23 23 -9
87 -41 140 -71 54 -30 102 -54 106 -54 8 0 26 32 104 177 l49 92 -21 40 c-11
22 -36 56 -55 76 -35 35 -122 85 -147 85 -7 0 -36 -30 -64 -67z"/>
<path d="M5895 5228 c-77 -44 -141 -82 -143 -83 -6 -5 141 -231 171 -262 42
-45 103 -46 193 -2 75 35 99 65 91 112 -4 27 -144 288 -165 309 -4 3 -70 -30
-147 -74z"/>
<path d="M4776 5201 l-30 -6 52 -40 c29 -21 52 -40 52 -41 0 0 -25 -45 -56
-99 l-57 -99 19 -55 c10 -30 33 -79 52 -110 38 -63 139 -191 151 -191 5 0 11
21 14 48 10 75 23 110 79 212 l53 95 73 3 c39 2 72 6 72 9 0 3 -30 68 -67 144
l-66 139 -156 -1 c-86 -1 -169 -4 -185 -8z"/>
<path d="M5627 4774 c-48 -76 -86 -143 -83 -149 10 -27 190 -275 199 -275 6 0
8 25 5 65 -6 75 -13 72 97 49 71 -15 80 -15 121 1 24 9 58 33 75 53 79 90 170
256 195 357 l7 30 -37 -29 c-75 -56 -125 -69 -303 -74 l-162 -4 -7 28 c-21 94
-11 99 -107 -52z"/>
<path d="M5187 4783 l-108 -4 -26 -55 c-32 -71 -41 -159 -19 -201 26 -50 80
-63 274 -63 l165 0 -6 122 c-4 66 -7 141 -7 165 l0 43 -82 -2 c-46 -1 -132 -4
-191 -5z"/>
<path d="M6248 5953 c6 -2 18 -2 25 0 6 3 1 5 -13 5 -14 0 -19 -2 -12 -5z"/>
<path d="M6315 5940 c17 -4 44 -8 60 -8 25 0 24 2 -10 9 -51 10 -92 10 -50 -1z"/>
<path d="M6428 5923 c7 -3 16 -2 19 1 4 3 -2 6 -13 5 -11 0 -14 -3 -6 -6z"/>
<path d="M6468 5913 c6 -2 18 -2 25 0 6 3 1 5 -13 5 -14 0 -19 -2 -12 -5z"/>
<path d="M6538 5903 c7 -3 16 -2 19 1 4 3 -2 6 -13 5 -11 0 -14 -3 -6 -6z"/>
<path d="M7341 5444 c0 -11 3 -14 6 -6 3 7 2 16 -1 19 -3 4 -6 -2 -5 -13z"/>
<path d="M7321 5364 c0 -11 3 -14 6 -6 3 7 2 16 -1 19 -3 4 -6 -2 -5 -13z"/>
<path d="M7171 5324 c0 -11 3 -14 6 -6 3 7 2 16 -1 19 -3 4 -6 -2 -5 -13z"/>
<path d="M7302 5290 c0 -14 2 -19 5 -12 2 6 2 18 0 25 -3 6 -5 1 -5 -13z"/>
<path d="M7282 5210 c0 -14 2 -19 5 -12 2 6 2 18 0 25 -3 6 -5 1 -5 -13z"/>
<path d="M7042 5175 c0 -16 2 -22 5 -12 2 9 2 23 0 30 -3 6 -5 -1 -5 -18z"/>
<path d="M7032 5120 c0 -14 2 -19 5 -12 2 6 2 18 0 25 -3 6 -5 1 -5 -13z"/>
<path d="M3385 4190 c-155 -20 -358 -55 -420 -72 l-40 -11 35 -8 c52 -12 227
-35 475 -64 121 -14 232 -28 248 -31 24 -5 27 -3 27 20 0 34 -36 128 -61 160
-25 32 -58 32 -264 6z"/>
<path d="M3480 3914 c-473 -40 -685 -64 -839 -95 -34 -7 389 -58 824 -98 182
-17 347 -34 368 -37 l38 -6 -7 39 c-7 37 -41 113 -66 144 -30 37 -81 53 -178
55 -52 1 -115 0 -140 -2z"/>
<path d="M4076 3573 c-37 -51 -66 -137 -66 -194 0 -97 50 -200 135 -277 72
-66 143 -93 244 -93 135 -1 261 70 330 185 67 112 75 215 25 326 -48 106 -26
100 -351 100 l-283 0 -34 -47z m415 -72 c34 -33 39 -45 39 -83 0 -103 -115
-163 -201 -105 -108 72 -58 227 74 227 44 0 53 -4 88 -39z m175 -192 c-8 -19
-29 -49 -47 -67 -31 -31 -98 -73 -116 -72 -4 1 9 10 31 21 56 30 101 74 121
119 22 48 31 47 11 -1z m-56 -34 c0 -2 -20 -18 -45 -35 -57 -39 -59 -32 -3 9
43 32 48 34 48 26z"/>
<path d="M5950 3583 c-122 -138 -96 -358 57 -493 177 -156 475 -90 593 132 28
53 35 76 38 143 5 94 -6 143 -48 208 l-30 47 -289 0 -289 0 -32 -37z m388 -63
c32 -20 62 -71 62 -106 0 -31 -34 -87 -64 -105 -88 -54 -196 5 -196 106 0 103
108 160 198 105z m190 -216 c-35 -71 -133 -144 -193 -143 -11 0 -2 6 20 14 22
8 41 19 43 25 2 5 8 8 13 4 5 -3 9 2 9 11 0 14 -3 14 -30 0 -48 -25 -48 -17 0
11 65 37 80 52 112 119 25 50 28 54 23 25 -5 -26 -3 -31 4 -20 6 8 12 31 13
50 1 32 2 31 5 -8 3 -30 -2 -56 -19 -88z"/>
<path d="M6461 3266 c-18 -19 -29 -36 -23 -40 5 -3 20 6 32 19 13 14 20 25 16
25 -5 0 -3 7 4 15 23 28 4 15 -29 -19z m19 1 c0 -2 -10 -12 -22 -23 l-23 -19
19 23 c18 21 26 27 26 19z"/>
</g>
</svg>
